{
	"asset":{
		"generator":"Khronos glTF Blender I/O v4.1.63",
		"version":"2.0"
	},
	"extensionsUsed":[
		"KHR_materials_specular",
		"KHR_materials_ior"
	],
	"scene":0,
	"scenes":[
		{
			"name":"Scene",
			"nodes":[
				0
			]
		}
	],
	"nodes":[
		{
			"mesh":0,
			"name":"Pinky.001",
			"rotation":[
				0.4999999403953552,
				0.5000001788139343,
				0.5000000596046448,
				0.4999998211860657
			],
			"translation":[
				0,
				0,
				95.46137237548828
			]
		}
	],
	"materials":[
		{
			"doubleSided":true,
			"extensions":{
				"KHR_materials_specular":{
					"specularColorFactor":[
						2.0,
						2.0,
						2.0
					]
				},
				"KHR_materials_ior":{
					"ior":1.4500000476837158
				}
			},
			"name":"Default",
			"pbrMetallicRoughness":{
				"baseColorTexture":{
					"index":0
				},
				"roughnessFactor":0.5527864098548889
			}
		}
	],
	"meshes":[
		{
			"name":"Pinky",
			"primitives":[
				{
					"attributes":{
						"POSITION":0,
						"NORMAL":1,
						"TEXCOORD_0":2,
						"TEXCOORD_1":3
					},
					"indices":4,
					"material":0
				}
			]
		}
	],
	"textures":[
		{
			"sampler":0,
			"source":0
		}
	],
	"images":[
		{
			"mimeType":"image/png",
			"name":"Pinky_Base_T",
			"uri":"Pinky_Base_T.png"
		}
	],
	"accessors":[
		{
			"bufferView":0,
			"componentType":5126,
			"count":14616,
			"max":[
				78.81914520263672,
				63.79058074951172,
				61.882694244384766
			],
			"min":[
				-79.88418579101562,
				-95.86445617675781,
				-66.09091186523438
			],
			"type":"VEC3"
		},
		{
			"bufferView":1,
			"componentType":5126,
			"count":14616,
			"type":"VEC3"
		},
		{
			"bufferView":2,
			"componentType":5126,
			"count":14616,
			"type":"VEC2"
		},
		{
			"bufferView":3,
			"componentType":5126,
			"count":14616,
			"type":"VEC2"
		},
		{
			"bufferView":4,
			"componentType":5123,
			"count":81135,
			"type":"SCALAR"
		}
	],
	"bufferViews":[
		{
			"buffer":0,
			"byteLength":175392,
			"byteOffset":0,
			"target":34962
		},
		{
			"buffer":0,
			"byteLength":175392,
			"byteOffset":175392,
			"target":34962
		},
		{
			"buffer":0,
			"byteLength":116928,
			"byteOffset":350784,
			"target":34962
		},
		{
			"buffer":0,
			"byteLength":116928,
			"byteOffset":467712,
			"target":34962
		},
		{
			"buffer":0,
			"byteLength":162270,
			"byteOffset":584640,
			"target":34963
		}
	],
	"samplers":[
		{
			"magFilter":9729,
			"minFilter":9987
		}
	],
	"buffers":[
		{
			"byteLength":746912,
			"uri":"Pinky.bin"
		}
	]
}
