{
	"asset":{
		"generator":"Khronos glTF Blender I/O v4.1.63",
		"version":"2.0"
	},
	"extensionsUsed":[
		"KHR_materials_specular",
		"KHR_materials_ior"
	],
	"scene":0,
	"scenes":[
		{
			"name":"Scene",
			"nodes":[
				0
			]
		}
	],
	"nodes":[
		{
			"mesh":0,
			"name":"Pinky.001"
		}
	],
	"materials":[
		{
			"doubleSided":true,
			"extensions":{
				"KHR_materials_specular":{
					"specularColorFactor":[
						2.0,
						2.0,
						2.0
					]
				},
				"KHR_materials_ior":{
					"ior":1.4500000476837158
				}
			},
			"name":"Default",
			"pbrMetallicRoughness":{
				"baseColorTexture":{
					"index":0
				},
				"roughnessFactor":0.5527864098548889
			}
		}
	],
	"meshes":[
		{
			"name":"Pinky",
			"primitives":[
				{
					"attributes":{
						"POSITION":0,
						"NORMAL":1,
						"TEXCOORD_0":2,
						"TEXCOORD_1":3
					},
					"indices":4,
					"material":0
				}
			]
		}
	],
	"textures":[
		{
			"sampler":0,
			"source":0
		}
	],
	"images":[
		{
			"mimeType":"image/png",
			"name":"pinky_t",
			"uri":"pinky_t.png"
		}
	],
	"accessors":[
		{
			"bufferView":0,
			"componentType":5126,
			"count":14645,
			"max":[
				3.7448067665100098,
				11.476036071777344,
				5.734550476074219
			],
			"min":[
				-5.371424198150635,
				0.102956123650074,
				-5.5707244873046875
			],
			"type":"VEC3"
		},
		{
			"bufferView":1,
			"componentType":5126,
			"count":14645,
			"type":"VEC3"
		},
		{
			"bufferView":2,
			"componentType":5126,
			"count":14645,
			"type":"VEC2"
		},
		{
			"bufferView":3,
			"componentType":5126,
			"count":14645,
			"type":"VEC2"
		},
		{
			"bufferView":4,
			"componentType":5123,
			"count":81135,
			"type":"SCALAR"
		}
	],
	"bufferViews":[
		{
			"buffer":0,
			"byteLength":175740,
			"byteOffset":0,
			"target":34962
		},
		{
			"buffer":0,
			"byteLength":175740,
			"byteOffset":175740,
			"target":34962
		},
		{
			"buffer":0,
			"byteLength":117160,
			"byteOffset":351480,
			"target":34962
		},
		{
			"buffer":0,
			"byteLength":117160,
			"byteOffset":468640,
			"target":34962
		},
		{
			"buffer":0,
			"byteLength":162270,
			"byteOffset":585800,
			"target":34963
		}
	],
	"samplers":[
		{
			"magFilter":9729,
			"minFilter":9987
		}
	],
	"buffers":[
		{
			"byteLength":748072,
			"uri":"pinky.bin"
		}
	]
}
