{
	"asset":{
		"generator":"Khronos glTF Blender I/O v4.1.63",
		"version":"2.0"
	},
	"scene":0,
	"scenes":[
		{
			"name":"Scene",
			"nodes":[
				0
			]
		}
	],
	"nodes":[
		{
			"mesh":0,
			"name":"Cube.001"
		}
	],
	"materials":[
		{
			"doubleSided":true,
			"name":"Material.002",
			"pbrMetallicRoughness":{
				"baseColorTexture":{
					"index":0
				},
				"metallicFactor":0,
				"roughnessFactor":0.4000000059604645
			}
		}
	],
	"meshes":[
		{
			"name":"Cube.002",
			"primitives":[
				{
					"attributes":{
						"POSITION":0,
						"NORMAL":1,
						"TEXCOORD_0":2
					},
					"indices":3,
					"material":0
				}
			]
		}
	],
	"textures":[
		{
			"sampler":0,
			"source":0
		}
	],
	"images":[
		{
			"mimeType":"image/png",
			"name":"shotgun_t",
			"uri":"shotgun_t.png"
		}
	],
	"accessors":[
		{
			"bufferView":0,
			"componentType":5126,
			"count":4360,
			"max":[
				0.6287693977355957,
				2.840040683746338,
				6.376609802246094
			],
			"min":[
				-0.6296875476837158,
				0.2508913278579712,
				-6.856534481048584
			],
			"type":"VEC3"
		},
		{
			"bufferView":1,
			"componentType":5126,
			"count":4360,
			"type":"VEC3"
		},
		{
			"bufferView":2,
			"componentType":5126,
			"count":4360,
			"type":"VEC2"
		},
		{
			"bufferView":3,
			"componentType":5123,
			"count":22212,
			"type":"SCALAR"
		}
	],
	"bufferViews":[
		{
			"buffer":0,
			"byteLength":52320,
			"byteOffset":0,
			"target":34962
		},
		{
			"buffer":0,
			"byteLength":52320,
			"byteOffset":52320,
			"target":34962
		},
		{
			"buffer":0,
			"byteLength":34880,
			"byteOffset":104640,
			"target":34962
		},
		{
			"buffer":0,
			"byteLength":44424,
			"byteOffset":139520,
			"target":34963
		}
	],
	"samplers":[
		{
			"magFilter":9729,
			"minFilter":9987
		}
	],
	"buffers":[
		{
			"byteLength":183944,
			"uri":"shotgun.bin"
		}
	]
}
